HIERARCHY
ROOT joint_Root
{
	OFFSET 0.0 0.0 0.0
	CHANNELS 6 Xposition Yposition Zposition Zrotation Xrotation Yrotation 
	JOINT Hips
	{
		OFFSET 4.5925 91.4895 -427.239
		CHANNELS 6 Xposition Yposition Zposition Zrotation Xrotation Yrotation 
		JOINT Spine
		{
			OFFSET 15.7357 0.0 0.0
			CHANNELS 6 Xposition Yposition Zposition Zrotation Xrotation Yrotation 
			JOINT Chest
			{
				OFFSET 8.98455 -0.406207 0.0
				CHANNELS 6 Xposition Yposition Zposition Zrotation Xrotation Yrotation 
				JOINT Neck
				{
					OFFSET 16.3773 0.0 0.0
					CHANNELS 6 Xposition Yposition Zposition Zrotation Xrotation Yrotation 
					JOINT Head
					{
						OFFSET 6.45672 0.0 0.0
						CHANNELS 6 Xposition Yposition Zposition Zrotation Xrotation Yrotation 
						End Site
						{
							OFFSET 0.0 0.0 0.0
						}
					}
				}
				JOINT Shoulder_L
				{
					OFFSET 12.9942 -0.242716 4.98039
					CHANNELS 6 Xposition Yposition Zposition Zrotation Xrotation Yrotation 
					JOINT UpperArm_L
					{
						OFFSET 5.34809 0.0 0.0
						CHANNELS 6 Xposition Yposition Zposition Zrotation Xrotation Yrotation 
						JOINT LowerArm_L
						{
							OFFSET 24.3286 1.87007e-05 0.0
							CHANNELS 6 Xposition Yposition Zposition Zrotation Xrotation Yrotation 
							JOINT Hand_L
							{
								OFFSET 22.2916 0.0 0.0
								CHANNELS 6 Xposition Yposition Zposition Zrotation Xrotation Yrotation 
								End Site
								{
									OFFSET 0.0 0.0 0.0
								}
							}
						}
					}
				}
				JOINT Shoulder_R
				{
					OFFSET 12.9945 -0.242716 -4.98039
					CHANNELS 6 Xposition Yposition Zposition Zrotation Xrotation Yrotation 
					JOINT UpperArm_R
					{
						OFFSET -5.34813 0.0 0.0
						CHANNELS 6 Xposition Yposition Zposition Zrotation Xrotation Yrotation 
						JOINT LowerArm_R
						{
							OFFSET -24.3289 0.000322201 0.0
							CHANNELS 6 Xposition Yposition Zposition Zrotation Xrotation Yrotation 
							JOINT Hand_R
							{
								OFFSET -22.2915 -0.000108084 0.0
								CHANNELS 6 Xposition Yposition Zposition Zrotation Xrotation Yrotation 
								End Site
								{
									OFFSET 0.0 0.0 0.0
								}
							}
						}
					}
				}
			}
		}
		JOINT UpperLeg_L
		{
			OFFSET -2.19248 -6.46944 0.0
			CHANNELS 6 Xposition Yposition Zposition Zrotation Xrotation Yrotation 
			JOINT LowerLeg_L
			{
				OFFSET 39.0811 0.0 -1.23785e-05
				CHANNELS 6 Xposition Yposition Zposition Zrotation Xrotation Yrotation 
				JOINT Foot_L
				{
					OFFSET 40.9854 0.0 -1.26872e-05
					CHANNELS 6 Xposition Yposition Zposition Zrotation Xrotation Yrotation 
					JOINT Toes_L
					{
						OFFSET 11.7543 0.0 0.0
						CHANNELS 6 Xposition Yposition Zposition Zrotation Xrotation Yrotation 
						End Site
						{
							OFFSET 0.0 0.0 0.0
						}
					}
				}
			}
		}
		JOINT UpperLeg_R
		{
			OFFSET -2.19251 6.46944 0.0
			CHANNELS 6 Xposition Yposition Zposition Zrotation Xrotation Yrotation 
			JOINT LowerLeg_R
			{
				OFFSET -39.0811 -0.00228153 -0.0401928
				CHANNELS 6 Xposition Yposition Zposition Zrotation Xrotation Yrotation 
				JOINT Foot_R
				{
					OFFSET -40.9854 0.0 0.0
					CHANNELS 6 Xposition Yposition Zposition Zrotation Xrotation Yrotation 
					JOINT Toes_R
					{
						OFFSET -11.7543 0.0 0.0
						CHANNELS 6 Xposition Yposition Zposition Zrotation Xrotation Yrotation 
						End Site
						{
							OFFSET 0.0 0.0 0.0
						}
					}
				}
			}
		}
	}
}
MOTION
Frames:	9
Frame Time:	0.0333333
0.000000 0.000000 0.000000 0.000000 0.000000 -0.000000 -0.628354 90.688600 -7.239300 88.935400 -2.198840 6.877370 15.735700 0.000005 -0.000001 88.568600 76.306200 -88.504200 8.984550 -0.406207 -0.000000 19.614300 -0.662736 0.243891 16.377300 -0.000001 -0.000001 3.672610 -4.284580 2.338870 6.456720 -0.000001 -0.000000 -10.317900 -3.193650 -0.512214 12.994200 -0.242716 4.980390 -91.166900 5.672000 -78.355100 5.348090 -0.000007 -0.000001 -45.970900 41.195400 -40.039100 24.328600 0.000019 0.000005 7.103310 17.032500 -23.046400 22.291600 -0.000001 0.000005 11.840000 5.269450 0.913080 12.994500 -0.242716 -4.980390 89.199100 9.959070 -85.379000 -5.348130 -0.000001 -0.000004 -52.845900 34.066000 -29.933700 -24.328900 0.000322 -0.000009 1.148770 2.463220 -25.032800 -22.291500 -0.000108 -0.000004 17.119700 5.425400 -3.781940 -2.192480 -6.469440 -0.000000 -175.888000 -7.477800 -9.874600 39.081100 -0.000007 -0.000012 -0.170145 0.258665 33.336500 40.985400 -0.000006 -0.000013 -0.257100 3.308290 -66.688500 11.754300 -0.000000 0.000003 -0.000072 -0.000776 -16.607500 -2.192510 6.469440 -0.000001 178.299000 16.750900 171.240000 -39.081100 -0.002282 -0.040193 -0.105359 0.170478 32.511900 -40.985400 0.000008 0.000006 4.269960 8.989300 -67.330400 -11.754300 -0.000006 -0.000006 -0.004075 -0.052220 -18.697300
0.000000 0.000000 0.000000 0.000000 0.000000 -0.000000 -0.635517 90.680800 -7.255010 88.936200 -2.208760 6.836550 15.735700 0.000005 -0.000001 88.580700 76.332800 -88.531900 8.984550 -0.406207 -0.000000 19.561100 -0.657489 0.211312 16.377300 -0.000001 -0.000001 3.790330 -4.280870 2.326080 6.456720 -0.000001 -0.000000 -10.383300 -3.191910 -0.492795 12.994200 -0.242716 4.980390 -91.142600 5.568900 -78.386300 5.348090 -0.000007 -0.000001 -46.058900 41.172600 -40.040100 24.328600 0.000019 0.000005 7.051550 16.981000 -22.954600 22.291600 -0.000001 0.000005 11.845200 5.269900 0.901005 12.994500 -0.242716 -4.980390 89.190800 9.928370 -85.317000 -5.348130 -0.000001 -0.000004 -53.253500 33.549900 -29.473100 -24.328900 0.000322 -0.000009 1.265500 2.580500 -26.153100 -22.291500 -0.000108 -0.000004 17.272600 5.426440 -3.817250 -2.192480 -6.469440 -0.000000 -175.890000 -7.506120 -9.946460 39.081100 -0.000007 -0.000012 -0.170092 0.258204 33.375300 40.985400 -0.000006 -0.000013 -0.251829 3.328240 -66.695500 11.754300 -0.000000 0.000003 -0.000074 -0.000793 -16.608200 -2.192510 6.469440 -0.000001 178.311000 16.756000 171.168000 -39.081100 -0.002282 -0.040193 -0.108372 0.175031 32.537500 -40.985400 0.000008 0.000006 4.179480 9.020020 -67.310400 -11.754300 -0.000006 -0.000006 -0.004108 -0.052557 -18.711000
0.000000 0.000000 0.000000 0.000000 0.000000 -0.000000 -0.646198 90.682400 -7.265110 88.937600 -2.200980 6.819080 15.735700 0.000005 -0.000001 88.499200 76.349500 -88.463700 8.984550 -0.406207 -0.000000 19.526800 -0.696135 0.190896 16.377300 -0.000001 -0.000001 3.893670 -4.267270 2.312900 6.456720 -0.000001 -0.000000 -10.455800 -3.151950 -0.523038 12.994200 -0.242716 4.980390 -91.126400 5.477870 -78.361400 5.348090 -0.000007 -0.000001 -46.150900 41.153400 -40.020500 24.328600 0.000019 0.000005 7.034430 16.997100 -22.885200 22.291600 -0.000001 0.000005 11.807700 5.270570 0.882846 12.994500 -0.242716 -4.980390 89.187400 9.866420 -85.268400 -5.348130 -0.000001 -0.000004 -53.731500 32.906400 -28.982000 -24.328900 0.000322 -0.000009 1.437410 2.770360 -27.453900 -22.291500 -0.000108 -0.000004 17.414400 5.430100 -3.942450 -2.192480 -6.469440 -0.000000 -175.886000 -7.443010 -9.967210 39.081100 -0.000007 -0.000012 -0.172543 0.262048 33.362900 40.985400 -0.000006 -0.000013 -0.273881 3.308570 -66.680800 11.754300 -0.000000 0.000003 -0.000064 -0.000700 -16.604600 -2.192510 6.469440 -0.000001 178.325000 16.802300 171.148000 -39.081100 -0.002282 -0.040193 -0.107233 0.173283 32.532000 -40.985400 0.000008 0.000006 4.193480 9.016050 -67.305200 -11.754300 -0.000006 -0.000006 -0.004060 -0.052062 -18.690900
0.000000 0.000000 0.000000 0.000000 0.000000 -0.000000 -0.655202 90.681800 -7.281400 88.947300 -2.196820 6.796450 15.735700 0.000005 -0.000001 88.448800 76.370000 -88.426400 8.984550 -0.406207 -0.000000 19.485200 -0.719931 0.168635 16.377300 -0.000001 -0.000001 4.024100 -4.251390 2.300410 6.456720 -0.000001 -0.000000 -10.566400 -3.144950 -0.536004 12.994200 -0.242716 4.980390 -91.108000 5.394120 -78.373900 5.348090 -0.000007 -0.000001 -46.311300 41.108600 -39.916200 24.328600 0.000019 0.000005 7.000490 16.952600 -22.837300 22.291600 -0.000001 0.000005 11.825700 5.272100 0.841301 12.994500 -0.242716 -4.980390 89.174300 9.822000 -85.170700 -5.348130 -0.000001 -0.000004 -54.141500 32.214600 -28.497600 -24.328900 0.000322 -0.000009 1.637960 2.952380 -29.053600 -22.291500 -0.000108 -0.000004 17.528000 5.428370 -3.883180 -2.192480 -6.469440 -0.000000 -175.898000 -7.475020 -10.004200 39.081100 -0.000007 -0.000012 -0.169510 0.257452 33.361800 40.985400 -0.000006 -0.000013 -0.272713 3.307830 -66.664500 11.754300 -0.000000 0.000003 -0.000066 -0.000718 -16.605300 -2.192510 6.469440 -0.000001 178.309000 16.820300 171.118000 -39.081100 -0.002282 -0.040193 -0.113181 0.182631 32.528900 -40.985400 0.000008 0.000006 4.127230 9.080550 -67.283600 -11.754300 -0.000006 -0.000006 -0.004176 -0.053254 -18.739400
0.000000 0.000000 0.000000 0.000000 0.000000 -0.000000 -0.663066 90.681000 -7.303220 88.941900 -2.208950 6.729030 15.735700 0.000005 -0.000001 88.384800 76.403100 -88.374100 8.984550 -0.406207 -0.000000 19.418200 -0.749229 0.149524 16.377300 -0.000001 -0.000001 4.109080 -4.234100 2.272890 6.456720 -0.000001 -0.000000 -10.657800 -3.108360 -0.545655 12.994200 -0.242716 4.980390 -91.091600 5.308020 -78.361700 5.348090 -0.000007 -0.000001 -46.419700 41.094100 -39.842900 24.328600 0.000019 0.000005 6.988800 16.962400 -22.791200 22.291600 -0.000001 0.000005 11.773800 5.271950 0.845315 12.994500 -0.242716 -4.980390 89.166000 9.760860 -85.092300 -5.348130 -0.000001 -0.000004 -54.586900 31.412800 -27.973100 -24.328900 0.000322 -0.000009 1.951210 3.266350 -30.889100 -22.291500 -0.000108 -0.000004 17.745800 5.429880 -3.934730 -2.192480 -6.469440 -0.000000 -175.896000 -7.460040 -10.093100 39.081100 -0.000007 -0.000012 -0.169813 0.257849 33.368300 40.985400 -0.000006 -0.000013 -0.291354 3.275180 -66.648400 11.754300 -0.000000 0.000003 -0.000072 -0.000777 -16.607600 -2.192510 6.469440 -0.000001 178.342000 16.849900 171.026000 -39.081100 -0.002282 -0.040193 -0.113191 0.182645 32.529000 -40.985400 0.000008 0.000006 4.120860 9.123810 -67.261400 -11.754300 -0.000006 -0.000006 -0.004156 -0.053054 -18.731300
0.000000 0.000000 0.000000 0.000000 0.000000 -0.000000 -0.674950 90.680800 -7.317590 88.933000 -2.216070 6.708460 15.735700 0.000005 -0.000001 88.348300 76.415500 -88.344900 8.984550 -0.406207 -0.000000 19.392900 -0.766208 0.137813 16.377300 -0.000001 -0.000001 4.171530 -4.215010 2.260360 6.456720 -0.000001 -0.000000 -10.755000 -3.080810 -0.557854 12.994200 -0.242716 4.980390 -91.076000 5.230820 -78.359000 5.348090 -0.000007 -0.000001 -46.531100 41.088400 -39.772300 24.328600 0.000019 0.000005 7.005330 17.051400 -22.736200 22.291600 -0.000001 0.000005 11.803700 5.273050 0.815514 12.994500 -0.242716 -4.980390 89.152200 9.696230 -84.978500 -5.348130 -0.000001 -0.000004 -54.928900 30.597500 -27.520700 -24.328900 0.000322 -0.000009 2.277420 3.520310 -32.942500 -22.291500 -0.000108 -0.000004 18.031800 5.430470 -3.955390 -2.192480 -6.469440 -0.000000 -175.884000 -7.473800 -10.124300 39.081100 -0.000007 -0.000012 -0.169128 0.256758 33.373400 40.985400 -0.000006 -0.000013 -0.296990 3.273230 -66.641200 11.754300 -0.000000 0.000003 -0.000075 -0.000802 -16.608500 -2.192510 6.469440 -0.000001 178.358000 16.894400 171.001000 -39.081100 -0.002282 -0.040193 -0.114808 0.185217 32.523800 -40.985400 0.000008 0.000006 4.130020 9.178290 -67.254200 -11.754300 -0.000006 -0.000006 -0.004118 -0.052657 -18.715100
0.000000 0.000000 0.000000 0.000000 0.000000 -0.000000 -0.688990 90.678000 -7.322180 88.949000 -2.256660 6.719290 15.735700 0.000005 -0.000001 88.308500 76.415400 -88.328300 8.984550 -0.406207 -0.000000 19.392600 -0.787025 0.094866 16.377300 -0.000001 -0.000001 4.254740 -4.181210 2.234400 6.456720 -0.000001 -0.000000 -10.907200 -3.041650 -0.533707 12.994200 -0.242716 4.980390 -91.055600 5.138000 -78.373600 5.348090 -0.000007 -0.000001 -46.699700 41.034800 -39.630800 24.328600 0.000019 0.000005 7.018470 17.081100 -22.740300 22.291600 -0.000001 0.000005 11.877600 5.271250 0.864268 12.994500 -0.242716 -4.980390 89.144200 9.646870 -84.906100 -5.348130 -0.000001 -0.000004 -55.225700 29.696800 -27.072300 -24.328900 0.000322 -0.000009 2.787390 3.949520 -35.262700 -22.291500 -0.000108 -0.000004 18.284000 5.432110 -4.011790 -2.192480 -6.469440 -0.000000 -175.887000 -7.489940 -10.103800 39.081100 -0.000007 -0.000012 -0.170600 0.258968 33.375900 40.985400 -0.000006 -0.000013 -0.303930 3.279430 -66.651200 11.754300 -0.000000 0.000003 -0.000061 -0.000673 -16.603600 -2.192510 6.469440 -0.000001 178.341000 16.897400 171.002000 -39.081100 -0.002282 -0.040193 -0.118074 0.190324 32.525900 -40.985400 0.000008 0.000006 4.008250 9.211850 -67.223500 -11.754300 -0.000006 -0.000006 -0.004077 -0.052236 -18.698000
0.000000 0.000000 0.000000 0.000000 0.000000 -0.000000 -0.696403 90.676000 -7.334210 88.950500 -2.289010 6.719520 15.735700 0.000005 -0.000001 88.293500 76.417000 -88.330500 8.984550 -0.406207 -0.000000 19.388900 -0.795663 0.061613 16.377300 -0.000001 -0.000001 4.297970 -4.149590 2.204640 6.456720 -0.000001 -0.000000 -11.064600 -3.020240 -0.528262 12.994200 -0.242716 4.980390 -91.040200 5.055170 -78.356900 5.348090 -0.000007 -0.000001 -46.773300 41.022200 -39.615900 24.328600 0.000019 0.000005 7.016710 17.143600 -22.662900 22.291600 -0.000001 0.000005 11.768800 5.270250 0.891479 12.994500 -0.242716 -4.980390 89.128300 9.582210 -84.777200 -5.348130 -0.000001 -0.000004 -55.530100 28.713200 -26.688400 -24.328900 0.000322 -0.000009 3.657510 4.730090 -37.786000 -22.291500 -0.000108 -0.000004 18.653500 5.429190 -3.911680 -2.192480 -6.469440 -0.000000 -175.876000 -7.526660 -10.123200 39.081100 -0.000007 -0.000012 -0.170782 0.259172 33.383300 40.985400 -0.000006 -0.000013 -0.315355 3.269420 -66.635100 11.754300 -0.000000 0.000003 -0.000071 -0.000764 -16.607100 -2.192510 6.469440 -0.000001 178.347000 16.916700 170.989000 -39.081100 -0.002282 -0.040193 -0.117173 0.188822 32.538100 -40.985400 0.000008 0.000006 4.033700 9.267290 -67.227900 -11.754300 -0.000006 -0.000006 -0.004113 -0.052609 -18.713200
0.000000 0.000000 0.000000 0.000000 0.000000 -0.000000 -0.708394 90.672300 -7.356240 88.937500 -2.308670 6.682300 15.735700 0.000005 -0.000001 88.238800 76.433800 -88.285600 8.984550 -0.406207 -0.000000 19.354600 -0.821080 0.046094 16.377300 -0.000001 -0.000001 4.313140 -4.123330 2.163500 6.456720 -0.000001 -0.000000 -11.234400 -2.984190 -0.544153 12.994200 -0.242716 4.980390 -91.033100 5.009350 -78.331300 5.348090 -0.000007 -0.000001 -46.845700 40.997100 -39.547800 24.328600 0.000019 0.000005 7.026430 17.171500 -22.659200 22.291600 -0.000001 0.000005 11.797900 5.269480 0.912113 12.994500 -0.242716 -4.980390 89.114500 9.499690 -84.650100 -5.348130 -0.000001 -0.000004 -55.840700 27.672200 -26.313400 -24.328900 0.000322 -0.000009 4.649500 5.451990 -40.563900 -22.291500 -0.000108 -0.000004 19.041400 5.430110 -3.943110 -2.192480 -6.469440 -0.000000 -175.857000 -7.517440 -10.185000 39.081100 -0.000007 -0.000012 -0.171082 0.259402 33.406200 40.985400 -0.000006 -0.000013 -0.330570 3.262590 -66.631400 11.754300 -0.000000 0.000003 -0.000074 -0.000799 -16.608400 -2.192510 6.469440 -0.000001 178.389000 16.907700 170.919000 -39.081100 -0.002282 -0.040193 -0.118369 0.190536 32.560000 -40.985400 0.000008 0.000006 4.096160 9.252740 -67.231900 -11.754300 -0.000006 -0.000006 -0.004192 -0.053419 -18.746100
